HIERARCHY
ROOT Bip001_Pelvis
{
  OFFSET 32.8599 95.8771 -27.9544
  CHANNELS 6 Xposition Yposition Zposition Zrotation Xrotation Yrotation
  JOINT Bip001_Spine
  {
    OFFSET 1.4188e-005 10.2191 -0.0116013
    CHANNELS 3 Zrotation Xrotation Yrotation
    JOINT Bip001_L_Thigh
    {
      OFFSET 11.0458 -10.2191 0.0116197
      CHANNELS 3 Zrotation Xrotation Yrotation
      JOINT Bip001_L_Calf
      {
        OFFSET -0.707118 -44.0221 0.360014
        CHANNELS 3 Zrotation Xrotation Yrotation
        JOINT Bip001_L_Foot
        {
          OFFSET -0.651902 -40.5938 -3.56146
          CHANNELS 3 Zrotation Xrotation Yrotation
          JOINT Bip001_L_Toe0
          {
            OFFSET 0.0530839 -10.2181 13.1504
            CHANNELS 3 Zrotation Xrotation Yrotation
            End Site
            {
              OFFSET -1.02532e-005 0 7.55606
            }
          }
        }
      }
    }
    JOINT Bip001_R_Thigh
    {
      OFFSET -11.0458 -10.2191 0.0115893
      CHANNELS 3 Zrotation Xrotation Yrotation
      JOINT Bip001_R_Calf
      {
        OFFSET 0.706994 -44.0221 0.35984
        CHANNELS 3 Zrotation Xrotation Yrotation
        JOINT Bip001_R_Foot
        {
          OFFSET 0.651787 -40.5938 -3.5613
          CHANNELS 3 Zrotation Xrotation Yrotation
          JOINT Bip001_R_Toe0
          {
            OFFSET -0.0531479 -10.2181 13.1504
            CHANNELS 3 Zrotation Xrotation Yrotation
            End Site
            {
              OFFSET -1.02894e-005 0 7.55606
            }
          }
        }
      }
    }
    JOINT Bip001_Spine1
    {
      OFFSET 1.87041e-005 14.5736 1.08638
      CHANNELS 3 Zrotation Xrotation Yrotation
      JOINT Bip001_Spine2
      {
        OFFSET 2.24614e-005 14.5058 -1.69078
        CHANNELS 3 Zrotation Xrotation Yrotation
        JOINT Bip001_Neck
        {
          OFFSET 2.20278e-005 15.3945 -0.489414
          CHANNELS 3 Zrotation Xrotation Yrotation
          JOINT Bip001_L_Clavicle
          {
            OFFSET 6.06036 -0.000579998 0.00836775
            CHANNELS 3 Zrotation Xrotation Yrotation
            JOINT Bip001_L_UpperArm
            {
              OFFSET 11.5509 -0.0600302 0.00193952
              CHANNELS 3 Zrotation Xrotation Yrotation
              JOINT Bip001_L_Forearm
              {
                OFFSET 25.9523 0.0806089 -2.15551
                CHANNELS 3 Zrotation Xrotation Yrotation
                JOINT Bip001_L_Hand
                {
                  OFFSET 32.2475 0.153767 1.63968
                  CHANNELS 3 Zrotation Xrotation Yrotation
                  JOINT Bip001_L_Finger0
                  {
                    OFFSET 6.04639 -2.20976 5.90322
                    CHANNELS 3 Zrotation Xrotation Yrotation
                    End Site
                    {
                      OFFSET 4.22375 -1.43895 0.606486
                    }
                  }
                  JOINT Bip001_L_Finger1
                  {
                    OFFSET 11.0826 -0.704819 -0.198153
                    CHANNELS 3 Zrotation Xrotation Yrotation
                    End Site
                    {
                      OFFSET 6.20027 -0.397518 -0.0787166
                    }
                  }
                }
              }
            }
          }
          JOINT Bip001_R_Clavicle
          {
            OFFSET -6.06036 -0.000563197 0.00835105
            CHANNELS 3 Zrotation Xrotation Yrotation
            JOINT Bip001_R_UpperArm
            {
              OFFSET -11.5509 -0.0599978 0.00190698
              CHANNELS 3 Zrotation Xrotation Yrotation
              JOINT Bip001_R_Forearm
              {
                OFFSET -25.9523 0.0806819 -2.1559
                CHANNELS 3 Zrotation Xrotation Yrotation
                JOINT Bip001_R_Hand
                {
                  OFFSET -32.2476 0.153857 1.63991
                  CHANNELS 3 Zrotation Xrotation Yrotation
                  JOINT Bip001_R_Finger0
                  {
                    OFFSET -6.04642 -2.20975 5.9032
                    CHANNELS 3 Zrotation Xrotation Yrotation
                    End Site
                    {
                      OFFSET -4.22376 -1.43894 0.606473
                    }
                  }
                  JOINT Bip001_R_Finger1
                  {
                    OFFSET -11.0826 -0.70479 -0.198183
                    CHANNELS 3 Zrotation Xrotation Yrotation
                    End Site
                    {
                      OFFSET -6.20028 -0.397501 -0.0787337
                    }
                  }
                }
              }
            }
          }
          JOINT Bip001_Head
          {
            OFFSET 1.09673e-005 11.2744 2.05948
            CHANNELS 3 Zrotation Xrotation Yrotation
            End Site
            {
              OFFSET 2.89576e-005 20.8808 -2.77728e-005
            }
          }
        }
      }
    }
  }
}
MOTION
Frames:	16
Frame Time:	0.04
33.3938 95.9609 -28.395 0.992877 -0.0532107 2.13193 -0.2697 2.1645 0.0639954 4.15804 -2.49602 7.22555 -0.699346 5.46302 -11.3966 4.44831 -1.77123 -0.154961 -1.64714 -4.49584 2.87135 -3.99958 -3.42254 -1.64816 0.138282 10.8004 -0.107624 -5.51819 -9.52822 1.61243 2.18792 -7.42244 2.25841 -0.541126 4.32868 0.138089 -0.54176 4.32868 0.138163 1.85565 -6.25114 -3.97832 -25.5059 6.51989 1.06677 -55.0295 42.3549 2.56721 17.4184 2.15055 -23.7675 9.26102 1.51953 -4.66229 1.76556e-031 -6.36111e-015 1.59028e-015 1.76556e-031 -6.36111e-015 1.59028e-015 16.872 15.0177 28.4305 49.2163 -10.0307 41.1853 -11.2391 -19.9832 74.8565 -52.5109 21.8747 42.3425 -1.59028e-015 0 7.95139e-015 -0 0 9.54166e-015 -0.578627 -7.1316 -3.35873 
33.4056 95.9851 -28.4835 0.946839 -0.0177571 2.22579 -0.287628 2.15056 0.104361 4.17183 -2.62838 7.10905 -0.583539 5.51258 -11.2821 4.16543 -1.87929 -0.140112 -1.69117 -4.30362 2.86786 -3.95569 -3.43039 -1.66926 0.16869 10.6739 -0.0787792 -5.49766 -9.38087 1.50838 2.16746 -7.34998 2.22498 -0.580386 4.30057 0.227645 -0.580311 4.30057 0.227642 2.45463 -6.21731 -4.19669 -25.9729 6.38928 1.09168 -55.1139 42.4326 2.60978 17.5117 2.10983 -23.8518 9.44647 1.63359 -4.63907 6.36111e-015 -3.18055e-015 -0 3.18055e-015 -3.18056e-015 -1.59028e-015 15.5693 14.6119 27.8634 50.704 -11.8946 40.3556 -8.65906 -19.0519 77.3054 -50.8471 22.5689 39.9994 1.59028e-015 3.18055e-015 -1.59028e-015 -1.59028e-015 3.18056e-015 -1.59028e-015 -0.967658 -7.18334 -3.34418 
33.393 96.0012 -28.5894 0.895428 0.114133 2.18576 -0.286228 2.11862 0.0994871 4.211 -2.92242 7.59923 -0.402261 5.80898 -11.5175 3.47314 -2.3883 -0.0982253 -1.89092 -3.8468 3.0014 -3.90796 -3.57234 -1.51414 0.206327 10.5816 -0.0328491 -5.51916 -9.25685 1.37045 2.13951 -7.26471 2.1994 -0.575219 4.23673 0.209909 -0.575352 4.23672 0.209864 2.84195 -6.18601 -4.2695 -26.362 6.34772 0.952272 -55.1396 41.8973 2.66221 17.1784 2.40706 -24.0551 9.9517 1.5518 -4.59484 3.18055e-015 -3.18055e-015 1.59028e-015 -8.82782e-032 3.18056e-015 1.59028e-015 15.8638 14.3375 26.2449 51.9351 -11.0014 41.1114 -15.6179 -13.2924 76.8802 -51.3188 19.2767 35.1323 -3.18055e-015 -6.36111e-015 3.18055e-015 -1.59028e-015 -6.36111e-015 1.59028e-015 -1.22612 -7.14057 -3.27205 
33.4679 96.0016 -28.6972 1.14058 0.0350351 1.80539 -0.282592 2.15461 0.0769248 3.81392 -2.69749 8.20983 -0.211817 5.42296 -11.7526 3.4067 -2.15486 -0.105878 -1.87114 -3.88556 2.99257 -4.25949 -3.93783 -1.67453 0.17253 11.1684 0.080857 -5.33412 -9.47483 1.86044 2.11825 -7.18289 2.15547 -0.587257 4.30879 0.166276 -0.587572 4.30878 0.166261 2.40609 -6.55312 -4.04669 -26.0914 6.76063 1.09957 -55.44 41.7454 2.68611 17.22 2.58679 -24.1248 9.66351 1.35952 -4.715 1.76556e-031 -3.18055e-015 3.18055e-015 -3.18055e-015 -3.18056e-015 1.59028e-015 16.7896 14.5908 25.1462 50.0614 -11.785 39.3899 -10.3422 -18.0814 77.3802 -53.2358 24.0988 39.6532 6.36111e-015 -3.18055e-015 3.18055e-015 3.18055e-015 -3.18056e-015 5.56597e-015 -1.07284 -6.83131 -3.18893 
33.5034 95.994 -28.8222 1.22476 -0.0217308 1.39291 -0.279119 2.1855 0.0786376 3.60112 -2.6325 8.26219 -0.101455 5.27901 -11.5362 3.81434 -1.75771 -0.133038 -1.72571 -4.19647 2.88035 -4.4317 -4.1994 -1.80556 0.170188 11.4486 0.189366 -5.20929 -9.59788 2.29065 2.09417 -7.10883 2.13311 -0.576627 4.37054 0.168779 -0.577594 4.37054 0.168639 2.12574 -6.84936 -3.85051 -25.7828 7.08212 1.23884 -55.6777 42.0252 2.55489 16.9694 2.40537 -23.991 9.11286 1.53534 -4.7833 1.76556e-031 -6.36111e-015 1.59028e-015 8.82782e-032 -3.18056e-015 1.59028e-015 17.9478 14.9095 24.2491 50.3282 -13.5828 38.8088 -10.9087 -14.9734 77.845 -49.6694 28.9768 35.8968 3.18055e-015 0 3.18055e-015 6.36111e-015 0 1.59028e-015 -0.934791 -6.78949 -3.10327 
33.481 95.9869 -28.9273 1.16584 -0.00526304 0.869093 -0.279193 2.1785 0.169116 3.64371 -2.61724 8.50905 -0.144198 5.22595 -11.413 4.36032 -1.34448 -0.170063 -1.46808 -4.61567 2.64737 -4.36909 -4.42048 -1.71264 0.104456 11.5417 0.260467 -5.09522 -9.58864 2.56382 2.07779 -7.05284 2.10975 -0.570456 4.35616 0.349725 -0.56983 4.35616 0.349783 2.20808 -6.94459 -3.81788 -25.6854 7.15417 1.32701 -55.8619 42.6515 2.21159 16.8565 2.60318 -23.3897 8.98097 1.72345 -4.89546 3.53112e-031 6.36111e-015 -3.18055e-015 8.82782e-032 3.18056e-015 -1.59028e-015 19.1776 15.1158 23.2715 48.1391 -14.0798 36.4964 -10.3464 -14.267 77.6969 -47.4085 28.8294 35.4102 8.82781e-032 3.18055e-015 -1.59028e-015 3.18055e-015 0 -4.77083e-015 -0.966095 -6.70629 -3.03256 
33.4662 95.9965 -28.996 1.17079 -0.0359152 0.721858 -0.276096 2.17096 0.184911 3.67326 -2.60379 8.42334 -0.142091 5.28491 -11.1786 3.79471 -1.76032 -0.132742 -1.77107 -4.20862 2.94988 -4.38374 -4.43421 -1.77661 0.0932729 11.4984 0.3332 -5.05048 -9.56217 2.69033 2.06495 -7.01441 2.10161 -0.55964 4.34099 0.380501 -0.559798 4.341 0.380601 2.33572 -6.82938 -3.81991 -25.8393 7.04404 1.26077 -55.6988 42.6259 2.15158 16.5818 3.08619 -23.4222 9.16484 1.56161 -4.90253 -3.18055e-015 -3.18055e-015 -3.18055e-015 -3.18055e-015 0 -3.18055e-015 20.2722 15.06 22.3102 48.0302 -15.845 33.8224 -7.43711 -12.9661 78.8994 -45.9987 29.1903 36.7662 3.18055e-015 -9.54166e-015 -0 2.64834e-031 -9.54167e-015 1.59028e-015 -1.06221 -6.70489 -2.98959 
33.4052 95.9923 -29.0342 1.05263 -0.0243682 0.859822 -0.261305 2.14984 0.126586 3.87275 -2.68597 8.22485 -0.282311 5.38524 -11.1252 4.06653 -1.62131 -0.146753 -1.68404 -4.39435 2.86224 -4.2414 -4.36925 -1.76967 0.0972194 11.3837 0.351714 -5.0873 -9.51735 2.64649 2.06689 -7.01952 2.12633 -0.526752 4.29906 0.263699 -0.527304 4.29905 0.263434 2.27407 -6.73043 -3.73994 -25.8458 6.96124 1.25804 -56.3551 42.4899 2.80455 17.2573 2.8834 -23.4553 9.02306 1.46917 -4.99368 0 3.18055e-015 -0 3.18055e-015 0 -1.59028e-015 21.45 14.9604 21.3126 47.7556 -16.9101 29.4627 -6.99904 -9.13224 80.466 -46.3421 28.4539 35.169 3.18055e-015 3.18055e-015 1.59028e-015 -8.82782e-032 3.18056e-015 1.59028e-015 -0.904537 -6.6074 -2.94679 
33.4056 95.9831 -28.9842 1.1937 -0.161755 1.02088 -0.310304 2.16926 0.0580375 3.69582 -2.42683 8.5917 -0.140939 5.08785 -11.7075 4.26244 -1.34609 -0.165831 -1.646 -4.58785 2.854 -4.37263 -4.20769 -1.94993 0.155641 11.471 0.448249 -5.16037 -9.69983 2.67027 2.07065 -7.03121 2.1103 -0.621323 4.33811 0.128968 -0.622336 4.3381 0.128384 1.77889 -7.07945 -3.69107 -25.4259 7.25206 1.66162 -56.3096 42.4164 3.00172 17.2993 2.84135 -23.657 9.1119 1.57604 -4.90779 6.36111e-015 6.36111e-015 -1.59028e-015 9.54166e-015 0 -0 23.1848 15.2211 19.8719 45.6938 -15.8503 22.9689 -5.76108 -7.84585 81.2088 -46.1523 26.1027 35.3089 -3.18055e-015 4.77083e-015 3.18055e-015 -1.32417e-031 4.77083e-015 1.59028e-015 -0.578449 -6.29859 -3.07167 
33.2679 95.9729 -29.0131 1.00315 -0.0589008 1.55827 -0.300431 2.13006 -0.0268498 4.10244 -2.7536 8.12629 -0.383238 5.43617 -11.7151 4.15289 -1.48341 -0.153282 -1.66995 -4.5963 2.90256 -4.02935 -4.07384 -2.05241 0.0755322 11.2117 0.478117 -5.32795 -9.58741 2.32408 2.0979 -7.12421 2.14601 -0.591946 4.26026 -0.0431113 -0.593246 4.26027 -0.0430394 1.58797 -7.19561 -3.74241 -25.2936 7.35548 1.73877 -56.2735 42.5982 3.03959 17.3 2.6895 -23.3281 8.99491 1.56937 -4.80662 -0 0 1.59028e-015 -3.18055e-015 -3.18056e-015 3.18055e-015 24.3247 15.1782 18.5648 43.6983 -12.3062 15.2067 -5.99734 -7.7753 80.3233 -46.2557 23.7748 35.3613 -6.36111e-015 9.54166e-015 1.59028e-015 -9.54166e-015 1.11319e-014 1.59028e-015 -0.320222 -6.0641 -3.21326 
33.2036 95.9795 -28.9377 0.972085 -0.215729 1.92506 -0.310389 2.14255 -0.057225 4.24334 -2.50765 7.16335 -0.611433 5.17085 -11.1155 4.50825 -1.18233 -0.179488 -1.54467 -4.78622 2.79471 -3.89025 -3.70884 -2.39883 -0.0325859 11.0072 0.516695 -5.35581 -9.5712 2.3241 2.11423 -7.176 2.16021 -0.61959 4.28541 -0.102891 -0.619591 4.28542 -0.102891 1.42141 -7.39067 -3.747 -25.2472 7.55656 1.7837 -56.1177 43.0162 2.91462 17.0374 2.17103 -22.7767 9.02752 1.65897 -4.61873 -3.18055e-015 0 -0 -3.18055e-015 3.18056e-015 -1.59028e-015 25.3121 15.278 17.6135 43.3585 -8.31053 7.75552 -7.95003 -8.59562 76.9753 -45.5566 23.8242 37.891 -3.18055e-015 7.95139e-016 1.59028e-015 -6.36111e-015 -7.95139e-016 3.18055e-015 -0.162578 -5.75534 -3.28755 
33.2146 95.9666 -28.8525 1.02328 -0.130517 2.46872 -0.328091 2.1221 -0.132796 4.18224 -2.58976 6.2802 -0.616871 5.108 -10.7144 4.53334 -1.11394 -0.196473 -1.52959 -4.81737 2.76263 -3.92991 -3.53598 -1.81373 0.206986 10.852 0.282852 -5.66052 -9.54952 1.51419 2.15114 -7.29315 2.19972 -0.653319 4.24492 -0.253656 -0.652643 4.24492 -0.253606 1.05285 -7.76463 -3.67356 -24.9533 7.92631 1.98288 -56.0847 43.36 2.82241 17.1374 2.16329 -22.5255 8.83194 1.7497 -4.51899 6.36111e-015 0 3.18055e-015 3.18055e-015 -3.18056e-015 1.59028e-015 26.2196 15.5583 16.8982 43.9066 -2.45212 0.60545 -10.4382 -10.1451 71.2977 -42.8287 23.5774 37.1524 2.20695e-032 1.59028e-015 -7.95139e-016 3.18055e-015 1.59028e-015 -1.59028e-015 0.147257 -5.49464 -3.35175 
33.1313 95.9471 -28.7896 0.866162 -0.241309 2.85394 -0.311909 2.11253 -0.167011 4.48014 -2.6994 6.03454 -0.787806 5.52207 -10.8242 4.95033 -1.18799 -0.197809 -1.45232 -4.96558 2.69924 -3.67219 -3.23357 -2.08361 0.114038 10.6875 0.288046 -5.75428 -9.54391 1.44846 2.18522 -7.39206 2.22359 -0.620134 4.22595 -0.328884 -0.619045 4.22595 -0.327532 0.929455 -7.85993 -3.63671 -24.8179 8.02952 2.02091 -56.3527 43.3579 3.20177 17.1959 1.98181 -22.7188 8.94709 1.705 -4.38962 -3.18055e-015 3.18055e-015 1.59028e-015 -3.18055e-015 0 -0 26.6797 15.5961 16.4908 46.001 4.78031 -5.48377 -13.5189 -10.4912 63.404 -39.0504 21.5284 32.7531 -7.95139e-016 1.14053e-014 1.98785e-016 -6.00447e-032 9.88954e-015 3.47873e-016 0.237171 -5.39128 -3.35918 
33.0689 95.94 -28.7142 0.593838 -0.496251 3.02582 -0.262073 2.15524 -0.165475 4.86011 -2.72888 6.35741 -0.848034 6.07771 -11.2508 4.56326 -1.69855 -0.162642 -1.54058 -4.7813 2.76951 -3.32989 -2.77778 -2.15305 0.0234102 10.3092 0.317493 -5.80324 -9.37828 1.36062 2.19433 -7.4112 2.22692 -0.518223 4.31121 -0.324637 -0.518263 4.3112 -0.323062 0.728171 -8.15645 -3.60121 -24.7131 8.33209 2.10613 -56.5201 43.2406 3.58234 17.3129 1.99611 -23.123 9.10194 1.6337 -4.42001 -8.82781e-032 3.18055e-015 1.59028e-015 -3.18055e-015 6.36111e-015 1.59028e-015 27.011 15.7997 16.0977 49.1053 11.429 -9.38255 -15.6524 -11.5669 54.0155 -34.696 21.4117 29.2849 -3.18055e-015 -7.55382e-015 -1.59028e-015 -9.93129e-032 -3.57813e-015 -1.59028e-015 0.336434 -5.16347 -3.38308 
33.1408 95.9295 -28.787 0.900361 -0.181069 2.93995 -0.332471 2.08684 -0.159314 4.50187 -2.89888 6.72532 -0.703461 5.8867 -11.5438 4.18528 -1.69405 -0.145706 -1.64078 -4.62544 2.89533 -3.69127 -3.34236 -2.03879 0.136053 10.8935 0.308151 -5.84096 -9.62692 1.2778 2.19842 -7.44012 2.22882 -0.659587 4.17456 -0.308942 -0.659531 4.17457 -0.30895 0.616027 -8.36912 -3.48679 -24.588 8.52932 2.26965 -56.8817 43.2776 3.96689 17.493 2.02229 -23.3949 9.22286 1.65972 -4.4917 0 0 -1.59028e-015 3.18055e-015 -6.36111e-015 -0 27.1634 15.9343 15.8756 52.1205 18.1948 -11.5983 -17.8399 -9.23376 43.8161 -31.7502 19.2184 24.2962 -3.18055e-015 -6.36111e-015 1.59028e-015 -6.36111e-015 -7.95139e-015 1.59028e-015 0.397884 -4.9673 -3.31583 
33.2032 95.9233 -28.8914 1.21086 0.186116 2.77723 -0.405668 1.99914 -0.152624 4.14037 -3.02347 6.16865 -0.676619 5.48464 -10.8744 4.05726 -1.47242 -0.152365 -1.69893 -4.58362 2.96161 -4.04521 -3.99744 -2.16496 0.169821 11.5193 0.286428 -5.79446 -9.90169 1.49798 2.19939 -7.42217 2.23013 -0.808085 3.99944 -0.293712 -0.806833 3.99944 -0.293897 0.699023 -8.29436 -3.38188 -24.647 8.48699 2.18007 -57.3444 43.1908 4.51956 17.7671 2.37703 -23.5797 9.28156 1.83896 -4.60759 0 3.18055e-015 -0 -3.18055e-015 3.18056e-015 -0 27.4031 15.8235 15.6278 53.817 23.9374 -11.7051 -17.6007 -5.59122 33.8846 -27.4632 18.4384 19.7557 0 0 -0 -3.18055e-015 -1.59028e-015 -1.59028e-015 0.358917 -4.94839 -3.18389 
